<svg xmlns="http://www.w3.org/2000/svg" width="329.956" height="345.095" viewBox="0 0 329.956 345.095">
  <path id="paint-brush-solid" d="M107.63,208.5C81.775,210.238,58.311,220.537,45,257.23a9.856,9.856,0,0,1-9.4,6.727c-7.16,0-29.3-18.65-35.6-23.152.006,55.5,24.45,104.29,82.494,104.29,48.887,0,82.487-29.5,82.487-81.01a60.986,60.986,0,0,0-.625-6.154ZM295.076,0c-9.77,0-18.927,4.523-25.913,11.088C137.435,134.162,123.728,137.054,123.728,173.282a64.8,64.8,0,0,0,5.626,26.084l41.128,35.844a56.859,56.859,0,0,0,14.429,2.042c40.026,0,63.225-30.647,136.079-172.857,4.756-9.672,8.958-20.119,8.958-31C329.946,13.912,313.191,0,295.076,0Z" transform="translate(0.01)" fill="#ff5e3c"/>
</svg>
