<svg xmlns="http://www.w3.org/2000/svg" width="233.828" height="54.803" viewBox="0 0 233.828 54.803">
  <g id="Group_5" data-name="Group 5" transform="translate(0 0)">
    <path id="Path_33" data-name="Path 33" d="M-10450.789-1972.375h14.538c9.362,0,14.157,4.948,14.157,14.081v25.042c0,9.21-4.795,14.157-14.157,14.157h-14.538Zm14.386,44.832c3.2,0,4.795-1.522,4.795-5.4v-25.575c0-3.881-1.6-5.4-4.795-5.4h-4.872v36.383Z" transform="translate(10450.789 1973.136)" fill="#ff593e"/>
    <path id="Path_34" data-name="Path 34" d="M-10345.027-1972.375h9.514v53.281h-9.514Z" transform="translate(10384.075 1973.136)" fill="#ff593e"/>
    <path id="Path_35" data-name="Path 35" d="M-10289.158-1972.375h25.194v8.449h-15.681v13.776h12.256v8.449h-12.256v22.606h-9.514Z" transform="translate(10348.833 1973.136)" fill="#ff593e"/>
    <path id="Path_36" data-name="Path 36" d="M-10197.209-1972.375h25.956v8.449h-16.442v13.168h13.093v8.449h-13.093v14.766h16.442v8.449h-25.956Z" transform="translate(10290.832 1973.136)" fill="#ff593e"/>
    <path id="Path_37" data-name="Path 37" d="M-10101.756-1972.375h11.8l9.515,31.359v-31.359h8.524v53.281h-9.59l-11.723-38.438v38.438h-8.524Z" transform="translate(10230.62 1973.136)" fill="#ff593e"/>
    <path id="Path_38" data-name="Path 38" d="M-9987.131-1963.926h-9.895v-8.449h29.381v8.449h-9.973v44.832h-9.514Z" transform="translate(10164.556 1973.136)" fill="#ff593e"/>
    <path id="Path_39" data-name="Path 39" d="M-9895.594-1934.02v-26.031c0-9.134,5.1-14.386,14.387-14.386,9.361,0,14.461,5.252,14.461,14.386v26.031c0,9.058-5.1,14.386-14.461,14.386C-9890.494-1919.634-9895.594-1924.962-9895.594-1934.02Zm19.334.457v-26.945c0-3.73-1.828-5.48-4.947-5.48s-4.873,1.751-4.873,5.48v26.945c0,3.654,1.751,5.48,4.873,5.48S-9876.26-1929.909-9876.26-1933.563Z" transform="translate(10100.574 1974.437)" fill="#ff593e"/>
  </g>
</svg>
