<svg xmlns="http://www.w3.org/2000/svg" width="72.017" height="59.566" viewBox="0 0 72.017 59.566">
  <g id="Group_441" data-name="Group 441" transform="translate(-790.517 -160.014)">
    <circle id="Ellipse_7" data-name="Ellipse 7" cx="7.577" cy="7.577" r="7.577" transform="translate(820.359 167.948)" fill="#ff593e"/>
    <path id="Path_30" data-name="Path 30" d="M-10576.734-1932.724l-12.113-12.112a3.709,3.709,0,0,1,0-5.243l12.113-12.112v-15.05l-22.129,22.127a10.83,10.83,0,0,0,0,15.312l22.129,22.127Z" transform="translate(11439.268 2137.254)" fill="#ff593e"/>
    <path id="Path_31" data-name="Path 31" d="M-10728.571-1962.19l12.112,12.112a3.707,3.707,0,0,1,0,5.243l-12.112,12.112v15.05l22.128-22.127a10.827,10.827,0,0,0,0-15.312l-22.128-22.127Z" transform="translate(11519.088 2137.254)" fill="#ff593e"/>
    <path id="Path_32" data-name="Path 32" d="M-10641.216-1895.874h-10.642l-4.3,20.983h7.778Z" transform="translate(11473.407 2085.929)" fill="#ff593e"/>
  </g>
</svg>
