<svg xmlns="http://www.w3.org/2000/svg" width="319.777" height="279.769" viewBox="0 0 319.777 279.769">
  <path id="comment-dots-regular" d="M89.9,141.909a19.983,19.983,0,1,0,19.983,19.983A19.962,19.962,0,0,0,89.9,141.909Zm69.942,0a19.983,19.983,0,1,0,19.983,19.983A19.962,19.962,0,0,0,159.843,141.909Zm69.942,0a19.983,19.983,0,1,0,19.983,19.983A19.962,19.962,0,0,0,229.785,141.909ZM159.843,32C71.541,32-.025,90.139-.025,161.893c0,29.725,12.427,56.953,33.035,78.872-9.3,24.6-28.664,45.462-28.976,45.712a14.992,14.992,0,0,0,10.928,25.292c38.406,0,68.693-16.049,86.866-28.914a192.874,192.874,0,0,0,58.015,8.93c88.3,0,159.868-58.139,159.868-129.893S248.145,32,159.843,32Zm0,229.81a162.275,162.275,0,0,1-48.96-7.556l-14.176-4.5L84.53,258.375a134.29,134.29,0,0,1-35.908,18.11,156.636,156.636,0,0,0,12.427-25.1l6.62-17.548L54.8,220.219C43.5,208.167,29.95,188.246,29.95,161.893c0-55.079,58.264-99.917,129.893-99.917s129.893,44.838,129.893,99.917S231.471,261.81,159.843,261.81Z" transform="translate(0.066 -32)" fill="#ff5e3c"/>
</svg>
