<svg xmlns="http://www.w3.org/2000/svg" width="512" height="448" viewBox="0 0 512 448">
  <path id="server-solid" d="M480,160H32A32,32,0,0,1,0,128V64A32,32,0,0,1,32,32H480a32,32,0,0,1,32,32v64A32,32,0,0,1,480,160ZM432,72a24,24,0,1,0,24,24A24,24,0,0,0,432,72Zm-64,0a24,24,0,1,0,24,24A24,24,0,0,0,368,72ZM480,320H32A32,32,0,0,1,0,288V224a32,32,0,0,1,32-32H480a32,32,0,0,1,32,32v64A32,32,0,0,1,480,320Zm-48-88a24,24,0,1,0,24,24A24,24,0,0,0,432,232Zm-64,0a24,24,0,1,0,24,24A24,24,0,0,0,368,232ZM480,480H32A32,32,0,0,1,0,448V384a32,32,0,0,1,32-32H480a32,32,0,0,1,32,32v64A32,32,0,0,1,480,480Zm-48-88a24,24,0,1,0,24,24A24,24,0,0,0,432,392Zm-64,0a24,24,0,1,0,24,24A24,24,0,0,0,368,392Z" transform="translate(0 -32)" fill="#ff5e3c"/>
</svg>
